<svg width="80" height="80" viewBox="0 0 80 80" fill="none" xmlns="http://www.w3.org/2000/svg">
<path d="M9.52381 0C4.26667 0 0 4.26667 0 9.52381V70.4762C0 75.7333 4.26667 80 9.52381 80H70.4762C75.7333 80 80 75.7333 80 70.4762V9.52381C80 4.26667 75.7333 0 70.4762 0H9.52381ZM15.2381 26.6667H28.058C29.4485 26.6667 36.9717 26.572 36.9717 33.4673C36.9717 37.1244 34.4757 38.3613 33.3519 38.9137C35.0281 39.447 38.0952 40.9905 38.0952 45.7143C38.0952 53.0095 29.7324 53.3333 28.6086 53.3333H15.2381V26.6667ZM47.619 26.6667H60.9524V30.4762H47.619V26.6667ZM20.9524 31.2946V37.5446H27.0871C27.9251 37.5446 30.7031 37.0857 30.7031 34.2857C30.7031 31.4857 27.0851 31.2946 26.5327 31.2946H20.9524ZM54.7247 32.381C62.1533 32.381 64.1707 38.171 64.4754 39.5424C64.7612 40.9329 64.7619 42.1524 64.7619 43.8095H49.7135C49.7135 45.4667 50.5917 49.2001 55.0298 49.2001C56.2107 49.2001 57.0847 48.9155 57.9799 48.3631C58.8561 47.8107 59.1637 47.2749 59.4494 46.7225H64.4568C63.5807 48.9129 62.4002 50.5731 60.6287 51.6778C58.8573 52.7826 56.8001 53.3333 54.4382 53.3333C52.9525 53.3333 51.4857 53.0487 50 52.4963C48.819 51.9439 47.6396 51.1241 46.7634 50.3051C45.8872 49.467 45.2966 48.3618 44.7061 46.9903C44.1156 45.8856 43.8095 44.2286 43.8095 42.8571C43.8095 41.4857 44.3628 32.381 54.7247 32.381ZM54.7247 36.2463C50.4199 36.2463 49.7135 40.3807 49.7135 40.6473H59.1629C58.8582 39.2759 57.6199 36.2463 54.7247 36.2463ZM20.9524 41.3542V48.7054H27.3363C27.8868 48.7054 31.7708 48.5351 31.7708 45.1637C31.7708 41.8113 28.7192 41.3542 27.3363 41.3542H20.9524Z" fill="#29B2FE"/>
</svg>
