<svg width="44" height="44" viewBox="0 0 44 44" fill="none" xmlns="http://www.w3.org/2000/svg">
<path fill-rule="evenodd" clip-rule="evenodd" d="M2.75 22C2.75 32.6315 11.3685 41.25 22 41.25C32.6315 41.25 41.25 32.6315 41.25 22C41.25 11.3685 32.6315 2.75 22 2.75C11.3685 2.75 2.75 11.3685 2.75 22ZM44 22C44 34.1503 34.1503 44 22 44C9.84973 44 0 34.1503 0 22C0 9.84973 9.84973 0 22 0C34.1503 0 44 9.84973 44 22ZM23.375 12.375C23.375 11.6156 22.7594 11 22 11C21.2406 11 20.625 11.6156 20.625 12.375V28.3055L14.7223 22.4027C14.1853 21.8657 13.3147 21.8657 12.7777 22.4027C12.2407 22.9397 12.2407 23.8103 12.7777 24.3473L21.0277 32.5974C21.5647 33.1342 22.4353 33.1342 22.9723 32.5974L31.2224 24.3473C31.7592 23.8103 31.7592 22.9397 31.2224 22.4027C30.6853 21.8657 29.8147 21.8657 29.2776 22.4027L23.375 28.3055V12.375Z" fill="black"/>
</svg>
