<svg width="99" height="97" viewBox="0 0 99 97" fill="none" xmlns="http://www.w3.org/2000/svg">
<path d="M93.3409 29.2935C90.1016 19.9176 83.9448 11.769 74.9713 7.24203C64.7303 2.09132 52.6381 1.58832 41.4917 3.35888C31.4719 4.96848 20.9089 8.59007 13.4041 15.6723C9.46062 19.3945 6.4225 23.9014 4.8129 29.1125C3.20331 34.3437 2.72042 39.7962 2.37839 45.2286C2.35827 45.4499 2.29791 45.631 2.17719 45.7718C2.17719 45.8121 2.19731 45.8724 2.19731 45.9328C2.19731 56.5763 1.97598 67.7227 8.25342 76.8974C13.3438 84.362 21.2308 89.2712 29.8221 91.7259C47.5277 96.7961 68.8951 93.6574 83.1199 81.5049C98.0288 68.769 99.397 46.8382 93.3409 29.2935Z" fill="#ED1E79"/>
<path d="M96.0772 30.7022C93.2202 21.2659 87.8481 12.9362 79.5788 7.42332C70.2633 1.18612 58.3925 -0.32288 47.4271 0.48192C37.025 1.24648 26.3816 4.0834 17.5288 9.73712C13.1828 12.5137 9.29968 16.1554 6.46276 20.4812C3.46488 25.0484 1.93576 30.2998 1.11084 35.6517C0.648084 38.6898 0.426764 41.748 0.225564 44.8264C0.205444 45.0075 0.245684 45.1886 0.306044 45.3495C0.124964 45.5306 0.00424407 45.7922 0.00424407 46.1141C0.00424407 52.1702 -0.116476 58.2666 0.929764 64.2623C1.89552 69.7148 3.988 74.9058 7.28768 79.3724C13.1627 87.3198 22.0759 92.1084 31.5122 94.4624C49.3988 98.9291 70.5852 95.2069 84.7295 82.9739C99.6385 70.077 101.49 48.5888 96.0772 30.7022ZM83.1199 81.5051C68.875 93.6576 47.5277 96.7963 29.8221 91.7261C21.2308 89.2715 13.3438 84.3622 8.25344 76.8977C1.99612 67.7229 2.19732 56.5765 2.19732 45.933C2.19732 45.8726 2.19732 45.8324 2.1772 45.772C2.2778 45.6312 2.35828 45.4501 2.3784 45.2288C2.72044 39.7964 3.20332 34.3439 4.81292 29.1127C6.4024 23.9016 9.46064 19.3947 13.4042 15.6725C20.9089 8.59028 31.4719 4.96868 41.4917 3.3792C52.6583 1.60864 64.7303 2.09152 74.9714 7.26236C83.9449 11.7894 90.0815 19.9581 93.3409 29.3139C99.397 46.8384 98.0289 68.7692 83.1199 81.5051Z" fill="black"/>
<path d="M41.2703 58.508C41.0088 56.999 40.7472 55.49 40.3649 54.0011C40.0833 52.8543 38.2926 52.8342 38.031 54.0212C38.0109 54.142 37.9707 54.2627 37.9103 54.3834C37.5884 54.484 37.3067 54.7254 37.1659 55.0876C35.9184 55.5101 35.9989 57.6227 37.4475 57.4416C37.5683 57.4215 37.6689 57.4014 37.7695 57.3813C38.031 57.4819 38.3328 57.4819 38.5944 57.4215L38.6145 57.5422C33.4638 57.2807 28.293 57.4819 23.1422 57.2606C22.3374 53.639 23.2026 49.6351 23.263 45.9934L31.6329 46.5567C31.7335 46.7378 31.8542 46.9189 31.995 47.1C32.4779 47.7036 33.1821 47.5426 33.6247 47.1C34.0271 47.2408 34.51 47.0798 34.8319 46.778H34.9124C35.5965 46.8183 36.0593 46.1744 36.0995 45.5507L36.1196 45.1483C36.1397 44.7862 35.8782 44.263 35.516 44.1222C35.3953 44.0618 35.2545 44.0216 35.1337 43.9612C34.9527 43.7198 34.671 43.5991 34.3692 43.5588C34.3289 43.5387 34.2686 43.4985 34.2283 43.4784C34.2283 43.4582 34.2283 43.4381 34.2283 43.418C34.1881 42.5126 33.4437 42.1504 32.7797 42.2913C32.0353 41.8486 31.0695 42.5126 31.0091 43.3778C30.989 43.6192 30.989 43.8606 30.989 44.1021L23.1624 43.5588C22.8404 39.1526 21.6735 34.7865 22.1765 30.3802C26.3614 30.3199 30.5665 29.9778 34.7313 30.179L34.6307 31.5271C34.5704 32.2916 35.1539 32.6739 35.7575 32.6739C35.7575 32.7142 35.7575 32.7544 35.7575 32.8148C35.7373 34.3841 38.0713 34.3238 38.1719 32.7946C38.2523 31.6679 38.3731 30.6016 38.7755 29.5352C39.0773 28.7103 38.2926 28.1067 37.5884 28.0262C31.0293 27.2013 24.4098 28.3079 17.8306 27.8854C16.2813 27.7848 16.3014 30.1992 17.8507 30.2998C18.4744 30.34 19.1182 30.3601 19.742 30.3802C19.2993 35.5108 20.7278 40.5207 20.7882 45.6513C20.8284 49.1723 20.0639 52.8744 20.4864 56.3954C19.5005 56.4759 18.5146 56.7173 17.5489 56.9789C16.1606 57.341 16.563 59.2524 17.8708 59.353L20.2852 59.514C20.5266 59.5341 20.7278 59.4939 20.8888 59.3933C21.0095 59.4738 21.1504 59.5341 21.3113 59.5744C21.7741 60.1377 22.6392 60.0975 23.1221 59.6951C28.7356 59.9566 34.3692 59.675 40.0028 60.0572C40.9484 60.0975 41.3911 59.2122 41.2703 58.508ZM58.9357 54.5444L58.9759 53.9609C59.0564 52.633 56.8835 52.3312 56.6219 53.5786C56.2597 53.6591 55.9177 53.9408 55.7567 54.4035C55.636 54.7254 55.5555 55.0071 55.4952 55.3492C55.4751 55.4296 55.4751 55.5101 55.4549 55.5906C55.1733 55.9326 55.0727 56.3954 55.3141 56.838C54.791 56.9386 54.2477 56.9588 53.7649 56.9789C51.7931 57.0594 49.6805 56.8783 48.6946 54.8663C48.1715 53.7798 48.1514 52.4116 48.091 51.2246C48.0105 49.3534 47.9099 47.4822 47.8898 45.6312C47.8898 43.9009 47.9703 42.1706 48.091 40.4402C49.9219 40.2793 51.7529 40.058 53.5637 39.9775C55.133 39.897 55.0727 37.6838 53.5435 37.5631C52.1955 37.4625 50.8475 37.2613 49.4793 37.1808C49.1373 37.1607 48.7349 37.1406 48.3325 37.1808C48.4733 35.5511 48.6141 33.9214 48.7349 32.2916C48.8355 30.7424 46.4211 30.7625 46.3205 32.3118C46.3003 32.6538 46.2802 32.9757 46.24 33.3178C46.0388 33.4586 45.8979 33.6799 45.8175 33.9616C45.2541 36.1547 43.6646 37.5027 41.4917 38.0057C40.3649 38.2673 40.3046 40.1384 41.5118 40.3396C42.9001 40.5811 44.2883 40.6213 45.6766 40.5811C45.5157 43.0558 45.4151 45.5306 45.5157 48.0255C45.6565 51.2246 45.2742 55.3492 47.8093 57.7434C49.7409 59.5744 52.9399 59.6146 55.4147 59.2524C56.5615 59.0915 57.7687 58.7293 58.5937 57.8843C59.4991 56.9185 59.4387 55.651 58.9357 54.5444ZM72.5368 49.957C71.0278 46.6976 67.2855 47.5426 64.4285 46.7177C63.1408 46.3555 61.7123 45.0276 61.6519 43.6594C61.6519 43.4582 61.6117 43.579 61.7726 43.3375C61.7525 43.3576 61.9738 43.1967 62.1147 43.1162C62.6177 42.8345 63.3017 42.7138 63.8852 42.6534C64.9113 42.5327 65.9576 42.5126 66.9837 42.5528C67.2453 42.7742 67.5471 42.9351 67.869 42.9754C67.8086 43.1363 67.7483 43.2973 67.7483 43.4784L67.6678 44.6856C67.6275 45.3495 68.2714 45.8928 68.8951 45.8726C69.5993 45.8726 70.0419 45.3093 70.0822 44.6453L70.1627 43.4381C70.1828 43.0558 69.9816 42.7339 69.6999 42.5126C69.7804 42.4522 69.8609 42.3718 69.9413 42.3114C70.726 41.6273 70.1828 40.561 69.3579 40.2994C68.9957 39.7562 68.1708 39.6958 67.6074 40.0982C67.5068 40.0982 67.4263 40.0982 67.3257 40.1183C64.9918 39.9775 62.3561 39.9574 60.5252 41.245C59.2375 42.1504 58.9156 43.6796 59.4991 45.1081C60.2234 46.939 61.5915 48.2468 63.4023 48.951C64.851 49.5144 66.4405 49.4339 67.9495 49.6552C69.4383 49.8564 70.2633 50.4198 70.5852 51.9288C70.7864 52.814 70.8065 53.8804 70.6053 54.7657C70.4041 55.5906 69.72 56.0131 69.0158 56.3753C67.7281 57.0191 65.0723 58.0452 63.7645 56.999C63.6639 56.9185 63.5834 56.838 63.5231 56.7374C63.5029 56.7173 63.5029 56.6771 63.4828 56.657C63.5029 56.3954 63.6438 56.1137 63.7041 55.8723C63.845 55.3894 64.0059 54.9065 64.1065 54.4236C64.1267 54.3633 64.1267 54.3029 64.1468 54.2627C64.1468 54.2627 64.1468 54.2627 64.1267 54.2627C64.1468 54.1621 64.1669 54.0615 64.187 53.9408C64.3279 52.8342 62.7786 52.4519 62.1147 53.0957L61.7525 53.0756C61.1087 53.0354 60.5453 53.6792 60.5654 54.3029C60.5855 55.0675 60.9276 55.3492 61.2495 55.832C61.2093 55.993 61.169 56.154 61.1288 56.3149C60.9678 57.341 61.4306 58.2062 62.2354 58.85C63.8852 60.1578 66.2393 59.9164 68.1104 59.3329C69.9011 58.7696 71.9131 57.9245 72.6978 56.0936C73.5227 54.2627 73.3617 51.7276 72.5368 49.957Z" fill="#D6E5E5"/>
<path d="M88.6127 39.6153C88.5926 39.6153 88.5926 39.6153 88.6127 39.6153C88.4517 38.6093 86.8019 38.3277 86.2788 39.4141C86.2385 39.4141 86.2184 39.4141 86.1782 39.4343C85.4941 39.4343 84.81 39.4946 84.1662 39.7361C82.8584 40.1988 83.1199 42.0096 84.4881 42.1102C84.7698 42.1303 85.0514 42.1505 85.3331 42.1505C84.0857 45.8324 82.798 49.5144 81.2085 53.0756C80.3635 51.3855 79.5184 49.6955 78.774 47.9651C78.2509 46.7378 77.768 45.4904 77.3857 44.2027C77.1644 43.3979 76.923 42.412 77.1443 41.8285C77.2248 41.5871 77.2046 41.3457 77.1242 41.1243C77.3656 40.4403 77.0035 39.5751 76.0176 39.5147L74.0056 39.3739C72.6575 39.2733 72.3557 41.5066 73.7038 41.7481C73.7239 41.7481 73.7641 41.7682 73.7842 41.7682C73.9452 42.0499 74.2269 42.2511 74.6092 42.2511C74.5891 42.9351 74.75 43.6393 74.8908 44.2832C75.2329 45.7318 75.7962 47.1402 76.3797 48.5084C77.3656 50.8423 78.4923 53.0957 79.6593 55.3492C79.7398 55.5101 79.8404 55.6107 79.941 55.7113C79.8202 55.9528 79.6995 56.1942 79.5587 56.4356C77.4662 60.4194 74.6896 64.3428 70.9272 66.8176C70.0822 66.9986 69.1164 66.9785 68.3317 67.1395C66.9032 67.4212 65.8771 68.4473 65.9375 69.9563C65.9777 70.7007 66.702 71.3446 67.4666 71.1031C69.0762 70.6001 70.5651 69.8959 71.9131 69.0308C72.3356 68.9302 72.7581 68.7692 73.1605 68.5479C73.5026 68.3467 73.6837 68.0449 73.7239 67.7431C76.8425 65.2482 79.2971 61.8882 81.2488 58.347C84.0857 53.2165 85.9568 47.6432 87.8481 42.1102C88.2908 42.07 88.7535 42.0297 89.2163 41.9493C90.7856 41.6877 90.1217 39.3739 88.6127 39.6153Z" fill="#D6E5E5"/>
</svg>
