<svg width="82" height="80" viewBox="0 0 82 80" fill="none" xmlns="http://www.w3.org/2000/svg">
<path fill-rule="evenodd" clip-rule="evenodd" d="M40.8485 0C18.291 0 0 18.361 0 41.0155C0 59.133 11.7038 74.5053 27.9396 79.9293C29.9821 80.3061 30.7277 79.0397 30.7277 77.9529C30.7277 76.9788 30.6919 74.4002 30.6714 70.9781C19.3072 73.4569 16.9098 65.4799 16.9098 65.4799C15.0536 60.7429 12.3753 59.4817 12.3753 59.4817C8.66555 56.9363 12.6562 56.9875 12.6562 56.9875C16.754 57.2772 18.9115 61.2145 18.9115 61.2145C22.5574 67.4818 28.4732 65.6721 30.8017 64.6211C31.1719 61.9707 32.2289 60.1636 33.3957 59.1383C24.3243 58.1027 14.7881 54.5858 14.7881 38.8701C14.7881 34.392 16.3787 30.7316 18.9932 27.8632C18.5719 26.8251 17.1702 22.6571 19.3915 17.0102C19.3915 17.0102 22.823 15.9079 30.6255 21.214C33.886 20.304 37.3788 19.8503 40.8537 19.8323C44.3235 19.8503 47.8187 20.304 51.0817 21.214C58.8792 15.9079 62.303 17.0102 62.303 17.0102C64.532 22.6571 63.1302 26.8251 62.7089 27.8632C65.3285 30.7316 66.909 34.392 66.909 38.8701C66.909 54.6242 57.3575 58.0923 48.2579 59.1074C49.7234 60.3737 51.0307 62.8755 51.0307 66.7026C51.0307 72.1855 50.9796 76.6071 50.9796 77.9529C50.9796 79.05 51.715 80.3265 53.7881 79.9241C70.0086 74.4899 81.7022 59.1279 81.7022 41.0155C81.7022 18.361 63.411 0 40.8485 0Z" fill="#29B2FE"/>
</svg>
