<svg width="88" height="80" viewBox="0 0 88 80" fill="none" xmlns="http://www.w3.org/2000/svg">
<path fill-rule="evenodd" clip-rule="evenodd" d="M88 80H68.5508V51.8768C68.5508 44.5156 65.5085 39.4903 58.8185 39.4903C53.7014 39.4903 50.8556 42.8815 49.531 46.1497C49.0343 47.3228 49.1119 48.9569 49.1119 50.591V80H29.8439C29.8439 80 30.0922 30.1825 29.8439 25.6541H49.1119V34.1833C50.2502 30.454 56.4073 25.1316 66.2328 25.1316C78.4228 25.1316 88 32.9487 88 49.7817V80ZM10.3584 18.8564H10.2343C4.02541 18.8564 0 14.7019 0 9.43585C0 4.06734 4.1444 0 10.4774 0C16.8053 0 20.6961 4.05715 20.8203 9.42053C20.8203 14.6866 16.8052 18.8564 10.3584 18.8564ZM2.2196 25.6541H19.3716V80H2.2196V25.6541Z" fill="#29B2FE"/>
</svg>
