<svg width="80" height="80" viewBox="0 0 80 80" fill="none" xmlns="http://www.w3.org/2000/svg">
<path d="M39.2383 16.7619V27.6463C38.3521 27.826 37.5598 28.3566 37.0161 29.1346C36.4724 29.9125 36.2164 30.8817 36.2982 31.8529C36.3799 32.8241 36.7936 33.7274 37.4583 34.3863C38.1229 35.0451 38.9909 35.4122 39.8925 35.4159C40.7941 35.4195 41.6645 35.0593 42.3337 34.4057C43.0028 33.7522 43.4226 32.8522 43.511 31.8817C43.5995 30.9112 43.3501 29.94 42.8117 29.1577C42.2734 28.3755 41.4847 27.8385 40.5998 27.6517V16.8033L61.5779 47.1205C57.9703 50.6612 54.7546 54.6425 51.995 58.9845C48.1556 65.037 45.2408 71.7178 43.362 78.7712L43.5633 39.3088H36.2174C36.2288 52.4071 36.2402 65.5046 36.2516 78.6014C33.3096 66.3914 26.9874 55.4458 18.1323 47.2316C25.1676 37.0772 32.203 26.9206 39.2383 16.7619Z" fill="#ED1E79"/>
<path d="M37.2126 4.12408C33.8274 4.42014 25.2468 5.67075 17.2136 12.7129C6.64152 21.9777 4.57158 34.6525 4.14492 37.7687" stroke="#ED1E79" stroke-width="2" stroke-miterlimit="10"/>
<path d="M75.6891 37.7611C75.1859 34.1257 73.4541 24.8642 66.3447 16.5899C57.1874 5.93524 45.5749 4.4234 42.6254 4.13388" stroke="#ED1E79" stroke-width="2" stroke-miterlimit="10"/>
<path d="M8.53334 4.01849H37.2126" stroke="#ED1E79" stroke-width="2" stroke-miterlimit="10"/>
<path d="M42.6254 4.01849H71.3046" stroke="#ED1E79" stroke-width="2" stroke-miterlimit="10"/>
<path d="M74.0539 6.9921C72.5355 6.9921 71.3047 5.66077 71.3047 4.0185C71.3047 2.37622 72.5355 1.04489 74.0539 1.04489C75.5722 1.04489 76.803 2.37622 76.803 4.0185C76.803 5.66077 75.5722 6.9921 74.0539 6.9921Z" stroke="#ED1E79" stroke-width="2" stroke-miterlimit="10"/>
<path d="M5.78414 6.9921C4.26581 6.9921 3.03496 5.66077 3.03496 4.0185C3.03496 2.37622 4.26581 1.04489 5.78414 1.04489C7.30247 1.04489 8.53333 2.37622 8.53333 4.0185C8.53333 5.66077 7.30247 6.9921 5.78414 6.9921Z" stroke="#ED1E79" stroke-width="2" stroke-miterlimit="10"/>
<path d="M37.2126 1.09171H42.6254V6.9464H37.2126V1.09171Z" stroke="#ED1E79" stroke-width="2" stroke-miterlimit="10"/>
<path d="M73.5222 37.904L78.3777 37.5855L78.6721 42.8374L73.8166 43.1558L73.5222 37.904Z" stroke="#ED1E79" stroke-width="2" stroke-miterlimit="10"/>
<path d="M5.95521 43.1553L1.09973 42.8369L1.39415 37.585L6.24963 37.9035L5.95521 43.1553Z" stroke="#ED1E79" stroke-width="2" stroke-miterlimit="10"/>
</svg>
