<svg width="96" height="97" viewBox="0 0 96 97" fill="none" xmlns="http://www.w3.org/2000/svg">
<path d="M48 0.839844C21.5329 0.839844 0 22.3728 0 48.8398C0 69.4676 13.0802 87.0943 31.3803 93.87C30.8532 89.1711 30.9358 81.4755 31.8056 77.7496C32.62 74.2498 37.0673 55.446 37.0673 55.446C37.0673 55.446 35.7247 52.7573 35.7247 48.7863C35.7247 42.546 39.3402 37.8899 43.8426 37.8899C47.6721 37.8899 49.5187 40.765 49.5187 44.2097C49.5187 48.0616 47.0698 53.8152 45.8013 59.1478C44.7435 63.6158 48.0414 67.2588 52.4455 67.2588C60.4202 67.2588 66.5501 58.8492 66.5501 46.712C66.5501 35.9692 58.8326 28.457 47.8102 28.457C35.0448 28.457 27.5515 38.0331 27.5515 47.9304C27.5515 51.7857 29.0357 55.9206 30.8909 58.171C31.2567 58.6162 31.3102 59.0046 31.2016 59.4566C30.8616 60.8735 30.1057 63.9212 29.9555 64.5459C29.7605 65.3691 29.3049 65.54 28.4558 65.1447C22.8507 62.5354 19.3473 54.3433 19.3473 47.7612C19.3473 33.6084 29.6293 20.6082 48.9957 20.6082C64.562 20.6082 76.6578 31.698 76.6578 46.5239C76.6578 61.9883 66.9057 74.4327 53.3739 74.4327C48.8267 74.4327 44.5537 72.0702 43.092 69.2796C43.092 69.2796 40.8416 77.8463 40.2945 79.9465C39.3503 83.5787 35.3082 91.1034 33.2791 94.5212C37.921 96.0207 42.8657 96.8398 48 96.8398C74.4681 96.8398 96 75.3079 96 48.8398C96 22.3728 74.4681 0.839844 48 0.839844Z" fill="#29B2FE"/>
</svg>
