<svg width="80" height="80" viewBox="0 0 80 80" fill="none" xmlns="http://www.w3.org/2000/svg">
<path d="M40 80C62.0914 80 80 62.0914 80 40C80 17.9086 62.0914 0 40 0C17.9086 0 0 17.9086 0 40C0 62.0914 17.9086 80 40 80Z" fill="#ED1E79"/>
<path d="M62.132 36.07V34.152H58.49L56.89 34.124C55.522 34.124 54.588 35.024 54.22 36.072V34.154H50.142V46.6H54.22V43.932V39.8C54.22 38.56 55.226 37.554 56.466 37.554H58.056V46.6H62.134V43.932V39.8C62.134 38.56 63.14 37.554 64.38 37.554H66.404V34.154L64.804 34.126C63.436 34.122 62.5 35.024 62.132 36.07ZM33.12 34.412L30.932 41.606L28.746 34.412H24.668L29.098 46.858H29.338H32.532H32.772L37.198 34.412H33.12ZM16.46 34.412V33.582C16.46 32.854 17.048 32.266 17.776 32.266H20.35V28.854H16.816C14.37 28.854 12.384 30.836 12.384 33.286V34.414H10V37.712H12.384V46.856H16.462V37.712H20.35V46.856H24.428V37.712V34.414H20.35H16.46V34.412ZM42.848 34.244H42.352C39.012 34.244 36.304 36.952 36.304 40.292V40.976C36.304 44.316 39.012 47.024 42.352 47.024H43.456C45.742 47.024 47.7 45.612 48.504 43.614L44.908 42.564C44.908 42.564 44.478 43.796 42.978 43.796C41.284 43.796 40.388 42.87 40.27 41.818V41.812C40.262 41.736 40.258 41.658 40.258 41.582H44.858H48.902V40.296C48.896 36.952 46.188 34.244 42.848 34.244ZM40.26 39.18C40.31 38.062 41.23 37.168 42.362 37.168H42.75C43.88 37.168 44.802 38.06 44.852 39.18H40.26Z" fill="white"/>
<path d="M69.704 47.146C71.1046 47.146 72.24 46.0106 72.24 44.61C72.24 43.2094 71.1046 42.074 69.704 42.074C68.3034 42.074 67.168 43.2094 67.168 44.61C67.168 46.0106 68.3034 47.146 69.704 47.146Z" fill="white"/>
</svg>
