<svg width="80" height="80" viewBox="0 0 80 80" fill="none" xmlns="http://www.w3.org/2000/svg">
<path fill-rule="evenodd" clip-rule="evenodd" d="M40.0001 0C29.1367 0 27.7745 0.0460424 23.5081 0.240707C19.2506 0.434894 16.3428 1.11113 13.7985 2.10002C11.1681 3.12208 8.93744 4.48982 6.71356 6.71354C4.48984 8.93741 3.12208 11.1681 2.10002 13.7985C1.11113 16.3428 0.434919 19.2505 0.240733 23.508C0.0460678 27.7745 0 29.1366 0 40.0001C0 50.8633 0.0460678 52.2255 0.240733 56.492C0.434919 60.7495 1.11113 63.6572 2.10002 66.2015C3.12208 68.8319 4.48984 71.0626 6.71356 73.2865C8.93744 75.5102 11.1681 76.8779 13.7985 77.9001C16.3428 78.8889 19.2506 79.5651 23.5081 79.7593C27.7745 79.954 29.1367 80 40.0001 80C50.8634 80 52.2255 79.954 56.4919 79.7593C60.7494 79.5651 63.6572 78.8889 66.2015 77.9001C68.8318 76.8779 71.0626 75.5102 73.2864 73.2865C75.5102 71.0626 76.8779 68.8319 77.9001 66.2015C78.8888 63.6572 79.5651 60.7495 79.7593 56.492C79.954 52.2255 80 50.8633 80 40.0001C80 29.1366 79.954 27.7745 79.7593 23.508C79.5651 19.2505 78.8888 16.3428 77.9001 13.7985C76.8779 11.1681 75.5102 8.93741 73.2864 6.71354C71.0626 4.48982 68.8318 3.12208 66.2015 2.10002C63.6572 1.11113 60.7494 0.434894 56.4919 0.240707C52.2255 0.0460424 50.8634 0 40.0001 0ZM40.0001 7.20718C50.6805 7.20718 51.9456 7.248 56.1634 7.44044C60.0634 7.61827 62.1814 8.26991 63.5909 8.8177C65.458 9.54332 66.7905 10.4101 68.1901 11.8099C69.5899 13.2096 70.4566 14.5421 71.1823 16.4091C71.73 17.8186 72.3817 19.9366 72.5595 23.8366C72.7519 28.0544 72.7928 29.3196 72.7928 40.0001C72.7928 50.6804 72.7519 51.9456 72.5595 56.1634C72.3817 60.0634 71.73 62.1814 71.1823 63.5909C70.4566 65.4579 69.5899 66.7904 68.1901 68.1901C66.7905 69.5899 65.458 70.4567 63.5909 71.1823C62.1814 71.7301 60.0634 72.3817 56.1634 72.5596C51.9462 72.752 50.6812 72.7928 40.0001 72.7928C29.3188 72.7928 28.0539 72.752 23.8366 72.5596C19.9366 72.3817 17.8186 71.7301 16.4091 71.1823C14.5421 70.4567 13.2095 69.5899 11.8099 68.1901C10.4102 66.7904 9.54332 65.4579 8.8177 63.5909C8.26991 62.1814 7.61827 60.0634 7.44044 56.1634C7.248 51.9456 7.20718 50.6804 7.20718 40.0001C7.20718 29.3196 7.248 28.0544 7.44044 23.8366C7.61827 19.9366 8.26991 17.8186 8.8177 16.4091C9.54332 14.5421 10.4101 13.2096 11.8099 11.8099C13.2095 10.4101 14.5421 9.54332 16.4091 8.8177C17.8186 8.26991 19.9366 7.61827 23.8366 7.44044C28.0544 7.248 29.3196 7.20718 40.0001 7.20718ZM40.0001 19.4595C28.6557 19.4595 19.4595 28.6557 19.4595 40.0001C19.4595 51.3443 28.6557 60.5405 40.0001 60.5405C51.3443 60.5405 60.5406 51.3443 60.5406 40.0001C60.5406 28.6557 51.3443 19.4595 40.0001 19.4595ZM40.0001 53.3333C32.6362 53.3333 26.6667 47.3638 26.6667 40.0001C26.6667 32.6362 32.6362 26.6667 40.0001 26.6667C47.3639 26.6667 53.3333 32.6362 53.3333 40.0001C53.3333 47.3638 47.3639 53.3333 40.0001 53.3333ZM66.1521 18.6479C66.1521 21.2989 64.003 23.4479 61.352 23.4479C58.7012 23.4479 56.5521 21.2989 56.5521 18.6479C56.5521 15.9969 58.7012 13.8479 61.352 13.8479C64.003 13.8479 66.1521 15.9969 66.1521 18.6479Z" fill="#ED1E79"/>
</svg>
