<svg width="112" height="80" viewBox="0 0 112 80" fill="none" xmlns="http://www.w3.org/2000/svg">
<path d="M2.22222 0C0.995556 0 0 0.995556 0 2.22222V33.5894C0 47.2805 10.4066 59.181 24.0755 59.9566C37.18 60.6988 48.3286 51.5031 50.6597 39.2231C51.9264 40.9342 53.2139 42.5244 54.5139 43.9844L46.671 77.27C46.5177 77.9322 46.672 78.6224 47.092 79.158C47.5165 79.6869 48.1568 80 48.8368 80H60.2127C61.2438 80 62.132 79.3052 62.3698 78.303C63.7498 72.4785 65.9133 63.3515 67.8733 55.0781L69.8958 56.25C74.7069 58.7411 79.5889 60 84.4445 60C100.427 60 113.169 45.8689 110.833 29.4444C109.287 18.5644 100.92 9.59632 90.178 7.28299C77.6691 4.58743 65.6119 10.9981 60.4297 21.6536C60.4297 21.6536 59.8546 22.9302 59.3924 24.2057C55.7257 17.8813 53.5725 11.3202 52.4436 6.56684C52.0325 4.83351 51.4166 1.69528 51.3455 1.49306C51.0366 0.5975 50.198 0 49.2491 0H37.7778C36.5511 0 35.5556 0.995556 35.5556 2.22222V34.0017C35.5556 39.2217 31.7494 43.89 26.5538 44.3967C20.5938 44.9789 15.5556 40.2889 15.5556 34.4444V2.22222C15.5556 0.995556 14.56 0 13.3333 0H2.22222ZM84.4445 22.2222C90.5711 22.2222 95.5556 27.2067 95.5556 33.3333C95.5556 39.46 90.5711 44.4444 84.4445 44.4444C79.5 44.4444 74.919 41.4628 71.7101 38.8629C72.8812 33.9184 73.6672 30.6068 73.6806 30.5512C74.9428 25.6468 79.3711 22.2222 84.4445 22.2222Z" fill="#ED1E79"/>
</svg>
